<?xml version="1.0" encoding="utf-8"?>
<!-- Generator: Adobe Illustrator 24.0.2, SVG Export Plug-In . SVG Version: 6.00 Build 0)  -->
<svg version="1.1" id="Camada_1" xmlns="http://www.w3.org/2000/svg" xmlns:xlink="http://www.w3.org/1999/xlink" x="0px" y="0px"
	 viewBox="0 0 172 24" style="enable-background:new 0 0 172 24;" xml:space="preserve">
<style type="text/css">
	.st0{fill:#FFFFFF;}
	.st1{fill:#49AA26;}
</style>
<path class="st0" d="M35.8,8.7h-2.7v12.7H30V8.7h-1.7V6.1H30V5c0-1.8,0.4-3,1.3-3.8C32.2,0.4,33.7,0,35.6,0v2.6
	c-0.9,0-1.6,0.2-2,0.6c-0.4,0.4-0.6,1-0.6,1.9v1.1h2.7V8.7z"/>
<path class="st0" d="M40.1,4.1c-0.6,0-1-0.2-1.4-0.6c-0.4-0.4-0.6-0.9-0.6-1.4c0-0.6,0.2-1.1,0.6-1.4c0.4-0.4,0.8-0.6,1.4-0.6
	c0.5,0,1,0.2,1.4,0.6C41.8,1,42,1.5,42,2.1c0,0.6-0.2,1.1-0.6,1.4C41.1,3.9,40.6,4.1,40.1,4.1z M41.6,6.1v15.2h-3.1V6.1H41.6z"/>
<path class="st0" d="M53.1,5.9c1.2,0,2.2,0.2,3.1,0.7c0.9,0.5,1.7,1.2,2.2,2.2c0.5,1,0.8,2.2,0.8,3.5v9h-3v-8.5c0-1.4-0.3-2.4-1-3.1
	c-0.7-0.7-1.6-1.1-2.7-1.1S50.4,9,49.7,9.7c-0.7,0.7-1,1.8-1,3.1v8.5h-3.1V6.1h3.1v1.7c0.5-0.6,1.1-1.1,1.9-1.5
	C51.4,6,52.2,5.9,53.1,5.9z"/>
<path class="st0" d="M62.1,13.7c0-1.5,0.3-2.9,0.9-4.1c0.6-1.2,1.5-2.1,2.5-2.7c1.1-0.7,2.3-1,3.6-1c1.2,0,2.2,0.2,3,0.7
	c0.9,0.5,1.6,1,2.1,1.7V6.1h3.1v15.2h-3.1v-2.3c-0.5,0.7-1.2,1.3-2.1,1.8c-0.9,0.5-1.9,0.7-3.1,0.7c-1.3,0-2.4-0.3-3.5-1
	c-1.1-0.7-1.9-1.6-2.5-2.8C62.4,16.6,62.1,15.2,62.1,13.7z M74.2,13.7c0-1.1-0.2-2-0.6-2.7c-0.4-0.8-1-1.4-1.6-1.8
	c-0.7-0.4-1.4-0.6-2.2-0.6c-0.8,0-1.5,0.2-2.2,0.6c-0.7,0.4-1.2,1-1.7,1.7c-0.4,0.8-0.6,1.7-0.6,2.7c0,1.1,0.2,2,0.6,2.8
	c0.4,0.8,1,1.4,1.7,1.8c0.7,0.4,1.4,0.6,2.2,0.6c0.8,0,1.5-0.2,2.2-0.6c0.7-0.4,1.2-1,1.6-1.8C74,15.7,74.2,14.8,74.2,13.7z"/>
<path class="st0" d="M88.8,5.9c1.2,0,2.2,0.2,3.1,0.7c0.9,0.5,1.7,1.2,2.2,2.2c0.5,1,0.8,2.2,0.8,3.5v9h-3v-8.5c0-1.4-0.3-2.4-1-3.1
	c-0.7-0.7-1.6-1.1-2.7-1.1c-1.1,0-2.1,0.4-2.7,1.1c-0.7,0.7-1,1.8-1,3.1v8.5h-3.1V6.1h3.1v1.7c0.5-0.6,1.1-1.1,1.9-1.5
	C87.1,6,87.9,5.9,88.8,5.9z"/>
<path class="st0" d="M97.8,13.7c0-1.6,0.3-2.9,0.9-4.1c0.6-1.2,1.5-2.1,2.6-2.8c1.1-0.6,2.3-1,3.8-1c1.8,0,3.3,0.4,4.4,1.3
	c1.2,0.9,2,2.1,2.4,3.7h-3.3c-0.3-0.8-0.7-1.3-1.3-1.8c-0.6-0.4-1.3-0.6-2.2-0.6c-1.3,0-2.3,0.5-3,1.4c-0.7,0.9-1.1,2.2-1.1,3.8
	s0.4,2.9,1.1,3.8c0.8,0.9,1.8,1.4,3,1.4c1.8,0,2.9-0.8,3.5-2.4h3.3c-0.4,1.5-1.2,2.8-2.4,3.7c-1.2,0.9-2.7,1.4-4.4,1.4
	c-1.4,0-2.7-0.3-3.8-1c-1.1-0.7-2-1.6-2.6-2.8C98.1,16.7,97.8,15.3,97.8,13.7z"/>
<path class="st0" d="M128.5,13.4c0,0.6,0,1.1-0.1,1.5h-11.3c0.1,1.2,0.5,2.2,1.3,2.9c0.8,0.7,1.8,1.1,2.9,1.1c1.7,0,2.8-0.7,3.5-2.1
	h3.3c-0.4,1.4-1.3,2.6-2.4,3.5c-1.2,0.9-2.6,1.3-4.4,1.3c-1.4,0-2.7-0.3-3.8-1c-1.1-0.7-2-1.6-2.6-2.8c-0.6-1.2-0.9-2.6-0.9-4.1
	s0.3-2.9,0.9-4.1c0.6-1.2,1.5-2.1,2.6-2.8c1.1-0.6,2.4-1,3.9-1c1.4,0,2.6,0.3,3.7,0.9c1.1,0.6,1.9,1.5,2.6,2.7
	C128.2,10.6,128.5,11.9,128.5,13.4z M125.3,12.4c0-1.2-0.4-2.1-1.2-2.8c-0.8-0.7-1.8-1.1-2.9-1.1c-1.1,0-2,0.4-2.7,1.1
	c-0.8,0.7-1.2,1.6-1.3,2.8H125.3z"/>
<path class="st1" d="M143.8,15.3c0,0.8-0.2,1.5-0.7,2.2c-0.4,0.7-1.1,1.3-2,1.7c-0.9,0.5-1.9,0.7-3,0.8V22h-1.8v-1.9
	c-1.7-0.1-3.1-0.6-4.1-1.4s-1.6-1.8-1.6-3.1h3.3c0.1,0.6,0.3,1.1,0.7,1.5c0.4,0.4,1,0.6,1.7,0.7v-5.2c-1.2-0.3-2.2-0.5-3-0.8
	c-0.8-0.3-1.4-0.7-2-1.3c-0.5-0.6-0.8-1.4-0.8-2.4c0-1.3,0.5-2.4,1.6-3.2c1.1-0.9,2.4-1.4,4.1-1.5V1.6h1.8v1.9
	c1.6,0.1,2.9,0.6,3.8,1.3c1,0.7,1.5,1.7,1.7,3h-3.3c-0.1-0.5-0.3-0.9-0.7-1.3c-0.4-0.4-0.9-0.7-1.5-0.8v5.1c1.2,0.2,2.2,0.5,3,0.8
	c0.8,0.3,1.4,0.7,1.9,1.3C143.5,13.5,143.8,14.3,143.8,15.3z M133.8,8.1c0,0.6,0.2,1.1,0.7,1.5c0.5,0.4,1.1,0.6,1.9,0.9V5.7
	c-0.8,0.1-1.4,0.3-1.9,0.7C134,6.8,133.8,7.4,133.8,8.1z M138.1,17.9c0.8-0.1,1.4-0.4,1.9-0.8c0.5-0.5,0.7-1,0.7-1.6
	c0-0.6-0.2-1.1-0.7-1.5c-0.4-0.4-1.1-0.6-1.9-0.9V17.9z"/>
</svg>
